/* XPM */
static char *result[] = {
/* columns rows colors chars-per-pixel */
"32 32 204 2 ",
"   c black",
".  c #010101",
"X  c #020201",
"o  c #020202",
"O  c #040202",
"+  c #040303",
"@  c #040401",
"#  c #040402",
"$  c #050402",
"%  c #060502",
"&  c #060602",
"*  c #070602",
"=  c #050404",
"-  c #070505",
";  c #0A0704",
":  c #090706",
">  c #080802",
",  c #090803",
"<  c #0C0C03",
"1  c #090805",
"2  c #090806",
"3  c #0A0806",
"4  c #0A0807",
"5  c #0B0A06",
"6  c #0E0C05",
"7  c #0C0A08",
"8  c #0D0B08",
"9  c #0E0B0A",
"0  c #0F0B0A",
"q  c #120D07",
"w  c #110E06",
"e  c #100F06",
"r  c #100F07",
"t  c #110C08",
"y  c #120F0A",
"u  c #150E08",
"i  c #150F08",
"p  c #120E0C",
"a  c #120F0D",
"s  c #180F09",
"d  c #190D0D",
"f  c #101105",
"g  c #131105",
"h  c #111107",
"j  c #131107",
"k  c #141106",
"l  c #151406",
"z  c #161506",
"x  c #181807",
"c  c #13100A",
"v  c #161208",
"b  c #17110A",
"n  c #14120A",
"m  c #16130C",
"M  c #14100E",
"N  c #15110E",
"B  c #1E1309",
"V  c #1B150B",
"C  c #18160B",
"Z  c #1A130C",
"A  c #19130E",
"S  c #18140F",
"D  c #1E150C",
"F  c #1C140F",
"G  c #1C170F",
"H  c #1B1909",
"J  c #1F1E09",
"K  c #171210",
"L  c #191310",
"P  c #191411",
"I  c #1A1512",
"U  c #1E1817",
"Y  c #201F09",
"T  c #201916",
"R  c #211C14",
"E  c #291E16",
"W  c #241D19",
"Q  c #261F1B",
"!  c #2F1A18",
"~  c #212109",
"^  c #21200A",
"/  c #26240B",
"(  c #29290B",
")  c #362E0F",
"_  c #33310F",
"`  c #34310F",
"'  c #2A2012",
"]  c #2B221D",
"[  c #2D231C",
"{  c #2C231E",
"}  c #2F261E",
"|  c #332013",
" . c #2F2621",
".. c #312722",
"X. c #3D3227",
"o. c #412816",
"O. c #442B15",
"+. c #442D1D",
"@. c #4E3618",
"#. c #503219",
"$. c #4D3126",
"%. c #41352C",
"&. c #41342D",
"*. c #513C25",
"=. c #503D2A",
"-. c #493A32",
";. c #4B3C33",
":. c #4D3E34",
">. c #4D3E35",
",. c #653830",
"<. c #673A32",
"1. c #683B33",
"2. c #693C32",
"3. c #4E4B16",
"4. c #524618",
"5. c #514138",
"6. c #524138",
"7. c #534339",
"8. c #54443B",
"9. c #55443B",
"0. c #56453B",
"q. c #57453C",
"w. c #57463C",
"e. c #59473D",
"r. c #59483E",
"t. c #5A483E",
"y. c #6A4725",
"u. c #6E4627",
"i. c #774F29",
"p. c #715123",
"a. c #715125",
"s. c #634A31",
"d. c #734334",
"f. c #7E4A36",
"g. c #785134",
"h. c #5C4A40",
"j. c #5D4A40",
"k. c #5D4B40",
"l. c #5E4B41",
"z. c #5F4C41",
"x. c #614D43",
"c. c #624E43",
"v. c #634F44",
"b. c #645045",
"n. c #83572E",
"m. c #82613F",
"M. c #946331",
"N. c #9B6437",
"B. c #A7723B",
"V. c #AB733B",
"C. c #AC743B",
"Z. c #B2763E",
"A. c #9E744A",
"S. c #A2744F",
"D. c #B4AE34",
"F. c #BBB536",
"G. c #C4BD3A",
"H. c #C5BF3A",
"J. c #CAC23A",
"K. c #CFC83C",
"L. c #D3CC3E",
"P. c #D5CD3D",
"I. c #D6CE3E",
"U. c #D7CF3E",
"Y. c #D8CF3F",
"T. c #D9D13F",
"R. c #DAD13F",
"E. c #DBD33E",
"W. c #DAD23F",
"Q. c #DBD23F",
"!. c #DBD33F",
"~. c #DCD43F",
"^. c #B68157",
"/. c #B98453",
"(. c #C98346",
"). c #C68A43",
"_. c #C3874A",
"`. c #CF8B4C",
"'. c #D08B46",
"]. c #D08D48",
"[. c #CB9055",
"{. c #D29150",
"}. c #D09559",
"|. c #D6975F",
" X c #D0AA42",
".X c #E4A05C",
"XX c #EFAB5F",
"oX c #F9BE58",
"OX c #C99561",
"+X c #CF9860",
"@X c #CF9965",
"#X c #D59860",
"$X c #D89E62",
"%X c #DCA267",
"&X c #DDA66B",
"*X c #EEA663",
"=X c #E7AB6B",
"-X c #E2A96E",
";X c #E9AD6F",
":X c #F2AD65",
">X c #F3AF6F",
",X c #E8AF71",
"<X c #DCD440",
"1X c #DDD540",
/* pixels */
"b.b.b.b.b.b.b.b.b.b.b.b.b.b.b.b.b.b.b.b.b.b.b.b.b.b.b.b.b.b.b.b.",
"b.b.b.b.b.b.b.b.b.b.b.b.b.b.b.b.b.b.b.b.b.b.b.b.b.b.b.b.b.b.b.b.",
"b.b.b.b.b.b.b.b.b.b.b.b.b.b.b.b.b.b.b.b.b.b.b.b.b.b.b.b.b.b.b.b.",
"b.b.b.b.b.b.b.b.b.b.b.b.b.b.b.b.b.b.b.b.b.b.b.b.b.b.b.b.b.b.b.b.",
"b.b.b.b.b.b.b.b.b.b.b.b.b.b.b.b.b.b.b.b.b.b.b.b.b.b.b.b.b.b.b.b.",
"b.b.b.b.b.b.b.b.b.b.b.b.b.b.b.b.b.b.b.b.b.b.b.b.b.b.b.b.b.b.b.b.",
"b.b.b.b.b.b.b.b.b.b.b.b.b.b.b.b.b.8.b.b.b.b.b.b.b.b.b.b.b.b.b.b.",
"b.b.b.b.b.b.b.b.b.b.b.b.b.b.b.b.b.b.b.b.b.b.b.b.b.b.b.b.b.b.b.b.",
"b.b.b.b.b.8.8.8.8.8.8.8.8.8.b.b.b.b.b.b.b.b.b.b.b.b.b.b.b.b.b.b.",
"b.b.b.b.b.b.b.b.b.b.b.b.b.b.b.b.b.b.b.b.b.b.b.b.b.b.b.b.b.b.b.b.",
"b.b.b.b.b.b.b.b.b.b.b.b.b.b.b.b.b.b.b.b.b.b.b.b.b.b.b.b.b.b.b.b.",
"b.b.b.b.b.b.b.b.b.b.b.b.b.c.9. .0 t b Z F p ] z.v.b.b.b.b.b.b.b.",
"b.b.b.b.b.b.b.b.b.b.b.b.b.7.I U d | M.V.*.$ L >.z.8.8.8.b.8.b.b.",
"b.b.b.b.b.b.b.b.b.b.b.b.e...+ ! ,.2.'.$X+Xs.  K r.b.b.b.b.b.b.b.",
"b.b.b.b.b.b.b.b.b.b.b.T : +.i.N.f.1.<./.A.A 4 -.b.b.b.b.b.b.b.b.",
"b.b.b.b.b.b.b.j.w.w.:.m 6 a.C.].`.d.1.$.E : = 9.q.k.b.b.b.b.b.b.",
"b.b.b.b.b.b.h.Q K 4 X K.~.k ' &X}.#X^.S.m.=.[ W M = l.b.b.b.b.b.",
"b.b.b.b.v.{ a C Y h , F.T.w V OX@X,X;X>X|.g.D ~ x   X.%.b.b.b.b.",
"b.b.b.l.6.P j R.~./ > J ) p.B.[.%X-X=X:X{.u.; f U.L.%   b.b.b.b.",
"b.b.b.S c G.I.J.I.E.D.(   o.n._..X*XXXoX1XW.* @ !.R.G N b.b.b.b.",
"b.b.b.o , H.<X3.` W.P./   O s y.Z.(.). XQ.Y.. o n } 5.t.b.b.b.b.",
"b.b.b.4 R H g z & _ ^ l       B O.#.@.4.< 1 7 9 &.5.b.b.b.b.b.b.",
"b.b.b.0.;.y % 2 - r e 5 - - - 3 q u i v # 8 7.k.k.x.b.b.b.b.b.b.",
"b.b.b.b.b.b.b.b.b.b.b.b.b.b.b.b.b.b.b.b.b.b.b.b.b.b.b.b.b.b.b.b.",
"b.b.b.b.b.b.b.b.b.b.b.b.b.b.b.b.b.b.b.b.b.b.b.b.b.b.b.b.b.b.b.b.",
"b.b.b.b.b.b.b.b.8.8.8.8.b.b.b.b.b.b.b.b.b.b.b.b.b.b.b.b.b.b.b.b.",
"b.b.b.b.b.b.b.b.b.b.b.b.b.b.b.b.b.b.b.b.b.b.b.b.b.b.b.b.b.b.b.b.",
"b.b.b.b.b.b.b.b.b.b.b.b.b.b.b.b.b.b.b.b.b.b.b.b.b.b.b.b.b.b.b.b.",
"b.b.b.b.b.b.b.b.b.b.b.b.b.b.b.b.b.b.b.b.b.b.b.b.b.b.b.b.b.b.b.b.",
"b.b.b.b.b.b.b.b.b.b.b.b.b.b.b.b.b.b.b.b.b.b.b.b.b.b.b.b.b.b.b.b.",
"b.b.b.b.b.b.b.b.b.b.b.b.b.b.b.b.b.b.b.b.b.b.b.b.b.b.b.b.b.b.b.b.",
"b.b.b.b.b.b.b.b.b.b.b.b.b.b.b.b.b.b.b.b.b.b.b.b.b.b.b.b.b.b.b.b."
};
