/* XPM */
static char *result[] = {
/* columns rows colors chars-per-pixel */
"32 32 167 2 ",
"   c #3D1A14",
".  c #3E1B15",
"X  c #44231B",
"o  c #412320",
"O  c #422421",
"+  c #482C27",
"@  c #54443B",
"#  c #5E514E",
"$  c #54525B",
"%  c #5F585D",
"&  c #645045",
"*  c #67554D",
"=  c #65554E",
"-  c #625551",
";  c #635856",
":  c #695953",
">  c #695A53",
",  c #605759",
"<  c #60585B",
"1  c #685C5B",
"2  c #464F62",
"3  c #475063",
"4  c #485164",
"5  c #485266",
"6  c #495367",
"7  c #4A5366",
"8  c #455169",
"9  c #45526A",
"0  c #46536B",
"q  c #47546C",
"w  c #47556E",
"e  c #495368",
"r  c #4A5468",
"t  c #4B5568",
"y  c #49556B",
"u  c #4C5669",
"i  c #4C566A",
"p  c #48566F",
"a  c #5A5667",
"s  c #5B5767",
"d  c #565964",
"f  c #585C6C",
"g  c #495670",
"h  c #505E7A",
"j  c #605E64",
"k  c #685E60",
"l  c #645D6A",
"z  c #546074",
"x  c #53617C",
"c  c #52607D",
"v  c #58647F",
"b  c #5C657C",
"n  c #5D687B",
"m  c #5E697D",
"M  c #686063",
"N  c #6D6261",
"B  c #6F6362",
"V  c #6F6462",
"C  c #696165",
"Z  c #62616B",
"A  c #62626F",
"S  c #62636F",
"D  c #69646B",
"F  c #6A656D",
"G  c #636674",
"H  c #676876",
"J  c #696874",
"K  c #6A6B78",
"L  c #6B6C79",
"P  c #6D6E7B",
"I  c #6E6E7A",
"U  c #75727A",
"Y  c #576681",
"T  c #576683",
"R  c #586681",
"E  c #5D6D89",
"W  c #5E6D8A",
"Q  c #616E86",
"!  c #636F87",
"~  c #606F8B",
"^  c #616F8B",
"/  c #677289",
"(  c #67738A",
")  c #61708C",
"_  c #62718D",
"`  c #61718F",
"'  c #63738F",
"]  c #66738C",
"[  c #65748F",
"{  c #68748D",
"}  c #6C778D",
"|  c #767682",
" . c #647390",
".. c #647392",
"X. c #6C7890",
"o. c #6F7B91",
"O. c #6C7A94",
"+. c #697A9B",
"@. c #6A7A9B",
"#. c #6B7B9C",
"$. c #6F7E9D",
"%. c #6D7D9E",
"&. c #6C7D9F",
"*. c #6C7E9F",
"=. c #6F7F9F",
"-. c #727D92",
";. c #717D94",
":. c #707C96",
">. c #727E97",
",. c #6D7EA0",
"<. c #6F7FA1",
"1. c #827F86",
"2. c #768094",
"3. c #758096",
"4. c #728098",
"5. c #7D889C",
"6. c #7081A1",
"7. c #7281A1",
"8. c #7080A2",
"9. c #7282A3",
"0. c #7283A3",
"q. c #7584A3",
"w. c #7383A4",
"e. c #7386A7",
"r. c #7484A5",
"t. c #7185A8",
"y. c #7686A8",
"u. c #7787A9",
"i. c #7888A8",
"p. c #7F8DAB",
"a. c #84838C",
"s. c #808BA1",
"d. c #808CA3",
"f. c #8592AD",
"g. c #8693AE",
"h. c #8794AD",
"j. c #8794AE",
"k. c #8895AF",
"l. c #8E98AA",
"z. c #929CAF",
"x. c #8391B0",
"c. c #8497B6",
"v. c #8996B0",
"b. c #8997B2",
"n. c #8B98B3",
"m. c #8B99B4",
"M. c #8C9AB4",
"N. c #8D9AB4",
"B. c #8D9AB5",
"V. c #8E9BB5",
"C. c #8F9CB7",
"Z. c #919DB5",
"A. c #929EB7",
"S. c #94A0B4",
"D. c #99A3B7",
"F. c #97A2B9",
"G. c #97A3BB",
"H. c #98A4BD",
"J. c #9AA5BC",
"K. c #9DA8BD",
"L. c #9EA8BC",
"P. c #9DA8BF",
"I. c #9DA8C0",
"U. c #9DA9C1",
"Y. c #A2ADC3",
"T. c #A3AFC7",
"R. c #A4AFC5",
/* pixels */
"& & & & & & & & & & & & & & & & & & & & & & & & & & & & & & & & ",
"& & & & & & & & & & & & & & & & & & & & & & & & & & & & & & & & ",
"& & & & & & & & & & & & & & & & & & & & & & & & & & & & & & & & ",
"& & & & & & & & & & & & & & U h.h.h.h.U & & & & & & & & & & & & ",
"& & & & & & & & & * : : > = Z N.j.j.N.Z = > : : * & & & & & & & ",
"& & & & & & & & & | v.k.N.{ / G.Z.Z.G./ { N.k.v.| & & & & & & & ",
"& & & & 1 B N V ; G m.g.n.] } Y.J.J.Y.} ] n.g.m.G ; V N B 1 # & ",
"& & & & >.M.k.V.! o.I.F.P.3.h ,.@.@.,.h 3.P.F.I.o.! V.k.M.>.y & ",
"& & & & :.b.f.n.Q X.H.A.H.;.x w.=.=.w.x ;.H.A.H.X.Q n.f.b.:.t & ",
"& & & & s.Y.K.R.-.c *.+.&.T v w.=.=.w.v T &.+.*.c -.R.K.Y.s.u & ",
"& & & & 4.B.v.C.( Y 0.=.9.b % F D D F % b 9.=.0.Y ( C.v.B.4.t & ",
"& & & & W ,.#.<.f , C M C - & & & & & & - C M C , f <.#.,.W 6 & ",
"& & & & ' y.w.r.J & & & & & & & & & & & & & & & & A r.w.y.' 6 & ",
"& & & & 8 0 0 9 $ & & & & & & & & & & & & & & & & $ 9 0 0 8 2 & ",
"& & & & 5.L.D.D.1.& & & & & & & & & & & & & & & & 1.D.D.L.5.u & ",
"& & & & [ i.q.q.I & & & & & & & & & & & & & & & & I q.q.i.[ 6 & ",
"& & & & ) 9.=.=.K & & & & & & & & & & & & & & & & K =.=.9.) 6 & ",
"& & & & _ r.6.6.L & & & & & & & & & & & & & & & & L 6.6.r._ 6 & ",
"& & & & R ..` ` S @ @ @ @ @ @ @ @ @ @ @ @ @ @ @ & S ` ` ..R 5 & ",
"& & & & z m n n j & & & & & & & & & & & & & & & & j n n m z 4 & ",
"& & & & d.T.U.U.a.& & & & & & & & & & & & & & & & a.U.U.T.d.i & ",
"& & & & E &.+.+.H & & & & & & & & & & & & & & & & H +.+.&.E 6 & ",
"& & & & ) 9.=.=.K & & & & & & & & & & & & & & & & K =.=.9.) 6 & ",
"& & & &  .u.r.r.P & & & & & & & & & & & & & & & & P r.r.u. .e & ",
"& & & & q g p w d & & & & & & & & & & & & & & & & d w p g q 3 & ",
"& & & & 2.z.l.S.< @ @ @ & & & & & & & & & & & & & k S.l.z.2.t & ",
"& & & & O.x.p.c.l X + + + + + + + + + + + + + + X l c.p.x.O.r & ",
"& & & & ~ 8.%.t.a   o o o o o o o o o o o o o o   a t.%.8.~ 6 & ",
"& & & & ^ 7.$.e.s . O O O O O O O O O O O O O O . s e.$.7.^ 7 & ",
"& & & & & & & & & & & & & & & & & & & & & & & & & & & & & & & & ",
"& & & & & & & & & & & & & & & & & & & & & & & & & & & & & & & & ",
"& & & & & & & & & & & & & & & & & & & & & & & & & & & & & & & & "
};
