/* XPM */
static char *da2a2c4186fa44b6d2e41025835bc1c3g83NMFTxw4kndEuQ[] = {
/* columns rows colors chars-per-pixel */
"32 32 184 2 ",
"   c black",
".  c #0D0303",
"X  c #140302",
"o  c #190A09",
"O  c #0E171A",
"+  c #111111",
"@  c #151A1C",
"#  c #2C0D0B",
"$  c #2C1615",
"%  c #2F1D1D",
"&  c #371411",
"*  c #391411",
"=  c #1D2526",
"-  c #262627",
";  c #3B2B2A",
":  c #373737",
">  c #3C3C3D",
",  c #451B15",
"<  c #571D14",
"1  c #4D2017",
"2  c #43201D",
"3  c #4B221C",
"4  c #59271E",
"5  c #5D281E",
"6  c #4B2421",
"7  c #522421",
"8  c #552922",
"9  c #4D383C",
"0  c #543433",
"q  c #523A3F",
"w  c #5D3B3B",
"e  c #6A2E26",
"r  c #642E28",
"t  c #64332D",
"y  c #6C342D",
"u  c #70372F",
"i  c #643631",
"p  c #6B3731",
"a  c #663833",
"s  c #6C3A34",
"d  c #633C3B",
"f  c #6E3E38",
"g  c #713731",
"h  c #713A33",
"j  c #7D3B33",
"k  c #723E38",
"l  c #6A413C",
"z  c #74423B",
"x  c #7B433D",
"c  c #414446",
"v  c #444A4B",
"b  c #5D4246",
"n  c #50414A",
"m  c #55494D",
"M  c #574953",
"N  c #5F4F5A",
"B  c #5B595D",
"V  c #654345",
"C  c #6D4A46",
"Z  c #6A4648",
"A  c #6D494A",
"S  c #7D4740",
"D  c #764D4A",
"F  c #645045",
"G  c #66544B",
"H  c #72534F",
"J  c #624F5A",
"K  c #704D50",
"L  c #66585A",
"P  c #745353",
"I  c #7D5453",
"U  c #77585A",
"Y  c #475267",
"T  c #4B5365",
"R  c #4C5569",
"E  c #4C586D",
"W  c #54566A",
"Q  c #52596A",
"!  c #4E5B73",
"~  c #4D5E7B",
"^  c #525D73",
"/  c #5A5B72",
"(  c #505E7B",
")  c #5F6769",
"_  c #4D607D",
"`  c #556076",
"'  c #54627C",
"]  c #5C6578",
"[  c #676064",
"{  c #6E676A",
"}  c #726B6F",
"|  c #63667D",
" . c #777475",
".. c #797979",
"X. c #854239",
"o. c #8B453B",
"O. c #834741",
"+. c #864943",
"@. c #884E46",
"#. c #985146",
"$. c #95544C",
"%. c #99574F",
"&. c #875958",
"*. c #836562",
"=. c #967A74",
"-. c #86807E",
";. c #4D6280",
":. c #526481",
">. c #5B6A85",
",. c #596C8B",
"<. c #5A7090",
"1. c #656D86",
"2. c #686D88",
"3. c #756F83",
"4. c #687286",
"5. c #63708C",
"6. c #6F798B",
"7. c #767684",
"8. c #73738D",
"9. c #737C8E",
"0. c #637392",
"q. c #6D7A92",
"w. c #67789A",
"e. c #6B7C9D",
"r. c #747691",
"t. c #717D93",
"y. c #717E9A",
"u. c #6C7EA0",
"i. c #7A8081",
"p. c #76839C",
"a. c #7C869A",
"s. c #7C889D",
"d. c #6D81A5",
"f. c #6E83A8",
"g. c #7384A5",
"h. c #7B87A1",
"j. c #7C8AA3",
"k. c #7287AA",
"l. c #738AAF",
"z. c #7B8BAC",
"x. c #768DB2",
"c. c #7B92B6",
"v. c #838384",
"b. c #878888",
"n. c #9D8A87",
"m. c #828699",
"M. c #838B9D",
"N. c #8C9394",
"B. c #919394",
"V. c #999999",
"C. c #A1908C",
"Z. c #A59490",
"A. c #A19F9F",
"S. c #848EA3",
"D. c #818FAB",
"F. c #8993A7",
"G. c #8592AC",
"H. c #8994AB",
"J. c #8D99AD",
"K. c #8795B3",
"L. c #8996B2",
"P. c #8E9BB4",
"I. c #8B9CBB",
"U. c #919DB4",
"Y. c #919EB8",
"T. c #9BA4A4",
"R. c #93A0BC",
"E. c #9BA7BD",
"W. c #9EA9BE",
"Q. c #A4A3A4",
"!. c #AEAEAD",
"~. c #B2BBBB",
"^. c #99A7C2",
"/. c #95A8C5",
"(. c #A2ADC3",
"). c #A5B1C7",
"_. c #ABB5CB",
"`. c #BDCCCE",
"'. c gray77",
"]. c #C6CDCE",
"[. c #CBCBCB",
"{. c #D3D3D3",
"}. c gray86",
"|. c #DEE2E2",
/* pixels */
"F F F F F F F F F F F F F F F F F F F F F F F F F F F F F F F F ",
"F F F F F F F F F F F F F F F F F F F F F F F F F F F F F F F F ",
"F F F F F F F F F F F F F F F F F F F F F F F F F F F F F F F F ",
"F F F F F F F F F F F F F F F F F F F F F F F F F F F F F F F F ",
"F F F F F F F F G F F F F F  .H.F.F.G.G F F F F F F F F F F F F ",
"F F F F F F F F l L } }  .L ] I.G.G.L.B { } } } G F F F F F F F ",
"F F F F F F F F F [ P.G.P.>.6._.W.W.W.] j.L.L.z.F F F F F F F F ",
"F F F F W M.m.S.4.` ^.P.E.6.>.L.z.z.G.' G.P.P.S.E M.s.S.i.B F F ",
"F F F F ! L.G.L.q.>.).E.).9._ d.w.e.e.^ U.E.E.J.` G.G.L.p.E F F ",
"F F F F ` (.E.(.S.! g.e.g.:.<.c.x.x.x._ 0.u.u.0.' (.E.).H.Q F F ",
"F F F F ^ P.L.I.p.' l.g.x.| 9 N N J M n u.k.k.e.' P.L.P.s.E F F ",
"F F F F E d.u.f.1.0 b 9 b d , 1 4 4 , 8 V q q w b f.e.d.0.R F F ",
"F F F F R >.:.<./ < < 1 r p t k x x s p y 8 3 5 w <.>.,.:.T F F ",
"F F F F E 9.6.6.7.P *.l p l f 2 # # X a x a p g C q.8.t.4.T F F ",
"F F F F ` E.R./.P.T.`.H r x 2 = ) b.T.; r a i y P /.Y.^.D.R F F ",
"F F F F E e.w.w.4.D I i z 3 @ B.> :  .~.% p i e Z u.w.e.5.T F F ",
"F F F F E z.k.x.8.e t t h $ c !.- + > |.m 8 a x K x.k.z.w.R F F ",
"F F F F Y ' ' ;.W g s p 2 @ A.~._.{.'.'.].. h Z.P _ ( ' ^ T F F ",
"F F F F E M.s.j.7.g f s 6 @ V.'.V.c -.}.'.X h n.U s.a.M.9.R F F ",
"F F F F ^ I.K.I.m.y h a 6 @ V.[.v.  B }.N.o h C.{ P.L.I.h.R F F ",
"F F F F E e.e.u.2.y k p 6 @ V.'.B.- ..[.i.o s =.P u.e.u.0.T F F ",
"F F F F ! z.k.x.r.u f s 2 O !.{.'.{.[.{.N.X z e A x.g.z.w.R F F ",
"F F F F T ! ! ~ W i t i p % > v c c c c > 6 s h V ~ ! ~ E T F F ",
"F F F F ^ J.H.F.S.=.A.C u s * * , , & & 7 z i y D L.F.J.a.W F F ",
"F F F F ^ D.z.x.p.b.Q.C r s a s k k a s f i t t A c.z.D.y.R F F ",
"F F F F E u.e.f.8.j j t x +.a k O.O.s k +.s s X.I d.e.g.0.E F F ",
"F F F F W y.q.e.3.o.o.a @.%.l x $.$.f S %.z z #.&.w.q.y.2.T F F ",
"F F F F F F F F F F F F F F F F F F F F F F F F F F F F F F F F ",
"F F F F F F F F F F F F F F F F F F F F F F F F F F F F F F F F ",
"F F F F F F F F F F F F F F F F F F F F F F F F F F F F F F F F ",
"F F F F F F F F F F F F F F F F F F F F F F F F F F F F F F F F ",
"F F F F F F F F F F F F F F F F F F F F F F F F F F F F F F F F "
};
