/* XPM */
static char *result[] = {
/* columns rows colors chars-per-pixel */
"32 32 23 1 ",
"  c black",
". c #54443A",
"X c #54443B",
"o c #5F4B55",
"O c #644F44",
"+ c #654F44",
"@ c #644F46",
"# c #645146",
"$ c #655146",
"% c #685448",
"& c #725A66",
"* c #C71F00",
"= c #88767B",
"- c #CAA46E",
"; c #690C91",
": c #7E11AD",
"> c #9641C8",
", c #AF50E8",
"< c #A18E93",
"1 c #DDBF85",
"2 c #EECDA0",
"3 c #EDE5C0",
"4 c #ECFFFF",
/* pixels */
"O$#O$OOO#OO$OOO$$OOO##OO$#OO$O#$",
"O#OOOO#$$#$$O#O#OOO###O$##O#$OOO",
"O#OO#O#$O$O#OO#$$O$#OO$$OO+$O@OO",
"##$@$O$$OO$OOO#O$O$OOO$OO#OO#O##",
"#O#$#OOOOOO2OO#OOO$-O###OO#OOOO#",
"#OOO$#O$O$#-2$$$#O--$O$O$O#OO#OO",
"OO#$O$O#OO@--2O$$---#$OO#$OO$OO#",
"#O#$$OOO##$-=22-----####OOO$OOOO",
"#$O$O..X.X-==222222--$##$OOOOO#O",
"OO$#$O#O#O--=-  2-222 :O#O#OOO$#",
"O#O#$#OOOO---   22-2- ::#O$O$O$$",
"O##$$@$$,1---  *222-2*<::O#$###O",
"O$OO$OO,,1---   242 4 &;&<X.OX#$",
"#$O$OO,>3------- 4  4-;;&;<#OOO$",
"$OOOO><>>------ ------;==;;##OO$",
"OOOO>>22>--------2222-====;<##OO",
"#O$#>-22=------2222222ooooo=$O$#",
"OOO-=====----2222222222ooooo=$$$",
"O$-======---2222222-222ooooo=$O#",
"##-======---2222222--22$ooooo=O#",
"O-====@#1-----222222-2-#O$$oo=OO",
"O-=O##O#3o------2222-oOO$O$#$=@O",
"#-O#OO@O#-oo-------oo=$#O$$##OOO",
"$$#OOOOOO22-ooooooooo=OOOO$OO$$#",
"O#$O%O#$$-2-2OO#O$=o=oO$O#$$O#$#",
"O#$O#$O#..2X#O#OOO$O=OO$O$O$$O##",
"OOOO#O#OOOOOO#OO$O$O#O#OOOO$#O##",
"O@O$O##O$#O#$$$O$OO$$O$$OOO$O#$#",
"#OO$#$$OOO$OOO#$$$OO#O##$#O##OOO",
"#OOOOOOO##OO###OOOOO$OO$O$OO#$O#",
"#$$OO$$#$OO#O#$O$OO$$OOO#O#OOO#O",
"O$$#$OO#O$$$#O$O#OO#OO$OOOO$O$O$"
};
