/* XPM */
static char *result[] = {
/* columns rows colors chars-per-pixel */
"32 32 20 1 ",
"  c black",
". c #54443A",
"X c #54443B",
"o c #55443B",
"O c #644F44",
"+ c #654F44",
"@ c #644F46",
"# c #645146",
"$ c #655146",
"% c #685448",
"& c #725A66",
"* c #DC2300",
"= c #7E11AD",
"- c #AF50E8",
"; c #A18E93",
": c #DCBF85",
"> c #DDBF85",
", c #D4CAA9",
"< c #EDE5C0",
"1 c #ECFFFF",
/* pixels */
"O$#O$OOO#OO$OOO$$OOO##OO$#OO$O#$",
"O#OOOO#$$#$$O#O#OOO###O$##O#$OOO",
"O#OO#O#$O$O#OO#$$O$#OO$$OO+$O@OO",
"##$@$O$$OO$OOO#O$O$OOO$OO#OO#O##",
"#O#$#OOOOOOOOO#OOO$OO###OO#OOOO#",
"#OOO$#O$O$#$O$$$#O@$$O$O$O#OO#OO",
"OO#$O$O#OO@$,$O$$X#>#$OO#$OO$OO#",
"#O#$$OOO##$O:<O#O#O>####OOO$OOOO",
"#$O$O..X.XX:><OOOO>>>$##$OOOOO#O",
"OO$#$O#O#O#>;<<>>>>>>O=O#O#OOO$#",
"O#O#$#OOOO>;;<<<<<<>>===#O$O$O$$",
"O##$$@$$->>>;>   ><<  ;==O#$###O",
"O$OO$OO-->>>>   <<><> &&&;X.OX#$",
"#$O$OO--<>>>>  *<<<><*&&&&;#OOO$",
"$OOOO>;;>>>>>   <<<   &&&&;##OO$",
"OOOO>;;;>>>>>>>>    1 $&&&&;##OO",
"#O$#>;;;>>>>>>>  1  1>#OO&&;$O$#",
"OOO>;;;;>>><<<<<<1  <<O#@##;O$$$",
"O$#>;OO$&>>><<<<<<><<>oXO#O$#$O#",
"###>#$$$>&>>><<<<<>>&O$$OOOO#OO#",
"OOOO$O@#>>&&>>>>>>>&;OO#O$$##OOO",
"O#OO##O#<>>&&&&&&&&;;OOO$O$#$$@O",
"#OO#OO@O#<>>OOO$$&&;O$$#O$$##OOO",
"$$#OOOOOOOO#$$O##$#$OOOOOO$OO$$#",
"O#$O%O#$$$O$#OO#O$#O#$O$O#$$O#$#",
"O#$O#$O#..XX#O#OOO$O$OO$O$O$$O##",
"OOOO#O#OOOOOO#OO$O$O#O#OOOO$#O##",
"O@O$O##O$#O#$$$O$OO$$O$$OOO$O#$#",
"#OO$#$$OOO$OOO#$$$OO#O##$#O##OOO",
"#OOOOOOO##OO###OOOOO$OO$O$OO#$O#",
"#$$OO$$#$OO#O#$O$OO$$OOO#O#OOO#O",
"O$$#$OO#O$$$#O$O#OO#OO$OOOO$O$O$"
};
