/* XPM */
static char *bf77de9678b64731fd19bcb4b702ec62XqR1fMc3PaFP0fSS[] = {
/* columns rows colors chars-per-pixel */
"20 20 121 2 ",
"   c black",
".  c #030203",
"X  c #060606",
"o  c #090206",
"O  c #060A04",
"+  c #050A06",
"@  c #070D05",
"#  c #927E6A",
"$  c #0C090A",
"%  c #0C0C0C",
"&  c #0E0E0E",
"*  c #091006",
"=  c #0C1508",
"-  c #0E120F",
";  c #1B0712",
":  c #0D1C12",
">  c #111011",
",  c #131313",
"<  c #111712",
"1  c gray9",
"2  c #141B11",
"3  c #141A16",
"4  c #1B1B1B",
"5  c #1C1A19",
"6  c gray12",
"7  c #220816",
"8  c #2D0B1E",
"9  c #28131E",
"0  c #16260E",
"q  c #192F17",
"w  c #18251A",
"e  c #162B19",
"r  c #172E1D",
"t  c #162F1E",
"y  c #212815",
"u  c #2E1E24",
"i  c #193321",
"p  c #193521",
"a  c #1B3824",
"s  c gray14",
"d  c #252525",
"f  c #272727",
"g  c #2A2A2A",
"h  c #2C2C2C",
"j  c #2D2D2D",
"k  c #30272A",
"l  c #27352A",
"z  c #3F302F",
"x  c #927E6A",
"c  c gray19",
"v  c #927E6A",
"b  c #343730",
"n  c #373633",
"m  c #383737",
"M  c #481230",
"N  c #4B1232",
"B  c #521836",
"V  c #254018",
"C  c #274319",
"Z  c #1F422A",
"A  c #20422A",
"S  c #254828",
"D  c #2A522D",
"F  c #2C542D",
"G  c #345921",
"H  c #284630",
"J  c #244B30",
"K  c #254C31",
"L  c #275134",
"P  c #295637",
"I  c #3C523D",
"U  c #386024",
"Y  c #3A6327",
"T  c #3C6626",
"R  c #3E6A28",
"E  c #396730",
"W  c #43472B",
"Q  c #41542A",
"!  c #43722B",
"~  c #417330",
"^  c #781D4F",
"/  c #5C2E45",
"(  c #72294F",
")  c #69354F",
"_  c #6E3853",
"`  c #3E6247",
"'  c #346D45",
"]  c #38764B",
"[  c #3D7A4F",
"{  c #3B7D4F",
"}  c #494845",
"|  c #575A50",
" . c #5A5854",
".. c #5F5E59",
"X. c #74544C",
"o. c #664250",
"O. c #466E4F",
"+. c #49684F",
"@. c #417E43",
"#. c #44714F",
"$. c #42744F",
"%. c #5D7B47",
"&. c #76736C",
"*. c #8F4B6B",
"=. c #4E8731",
"-. c #579537",
";. c #549439",
":. c #4A8E49",
">. c #55804A",
",. c #4E9347",
"<. c #549A45",
"1. c #51895F",
"2. c #87847A",
"3. c #918C80",
"4. c #AD9091",
"5. c #A49F92",
"6. c #BAA29E",
"7. c #A9BB9E",
"8. c #D1CBB9",
"9. c #D3D4BD",
"0. c #E8E1CD",
/* pixels */
"v v g , , , n 5.5.5.2.v v v v v v v v v ",
"v s 1   ; w I 7.7.6.4.&.v v v v v v v v ",
"h - + @ M ` { { { ) *.9.} m v v v v v v ",
"X i S G M ` { { { ) _ 1.8. .v v v v v v ",
"  a D T ; w A { r 9 k { 0...v v v v v v ",
"  a D T ; < p { r 9 k { 3.} v v v v v v ",
"  a D T M x P ] { ) ) {   s v v v v v v ",
"  a D T M x K L { ) ) {   s v v v v v v ",
"w 2 q T M 5 : : r 9 u e 6 h v v v v v v ",
"v % * V 8 w 0 0 r 9 7   v v v v v v v v ",
"h , X .   C G G ' / B = h v v v v v v v ",
"o i l M   + @ @ * # y -.X s v v v v v v ",
"  u n W V U R R N Q ~ :.  s v v v v v v ",
"  u z W T =.;.<.^ %.,.{   g v v v v v v ",
"  a n M T Y E ] ( +.[ #.  s v v v v v v ",
"  a x M T F K L #.[ +.(   s v v v v v v ",
"  a H n F e : : o.O.$.|   s v v v v v v ",
"  a J J t 3 %   X.>.@.K < v v v v v v v ",
"X i A Z + f s o -.-.! X v v v v v v v v ",
"h - + + h v v h = = 2 h v v v v v v v v "
};
