/* XPM */
static char *result[] = {
/* columns rows colors chars-per-pixel */
"33 33 75 1 ",
"  c #52433A",
". c #55443B",
"X c #56453B",
"o c #57453B",
"O c #57453D",
"+ c #57463D",
"@ c #57473E",
"# c #58463D",
"$ c #58473D",
"% c #58463E",
"& c #58473E",
"* c #59473E",
"= c #59483D",
"- c #5A493F",
"; c #5B493F",
": c #5A4A3F",
"> c #5B4A3F",
", c #5C493F",
"< c #5C4A3F",
"1 c #5D4B3F",
"2 c #5C4A41",
"3 c #5C4B41",
"4 c #5D4B41",
"5 c #5E4B41",
"6 c #5F4B41",
"7 c #5C4B42",
"8 c #5F4B42",
"9 c #5F4B43",
"0 c #5F4C40",
"q c #5E4C41",
"w c #5D4C42",
"e c #5E4C42",
"r c #5F4C42",
"t c #5F4D42",
"y c #5E4C43",
"u c #5F4C43",
"i c #5F4D43",
"p c #5F4E43",
"a c #604B42",
"s c #604C42",
"d c #604D42",
"f c #604C43",
"g c #604D43",
"h c #614D43",
"j c #624D42",
"k c #624D43",
"l c #604E43",
"z c #614E43",
"x c #624E43",
"c c #634E43",
"v c #634E44",
"b c #624F44",
"n c #634F44",
"m c #624E45",
"M c #634F46",
"N c #644E44",
"B c #644F44",
"V c #654F44",
"C c #664F44",
"Z c #644F46",
"A c #654F46",
"S c #635144",
"D c #645144",
"F c #655144",
"G c #665144",
"H c #645146",
"J c #655146",
"K c #665146",
"L c #665147",
"P c #655246",
"I c #655247",
"U c #665246",
"Y c #665247",
"T c #675247",
"R c #675347",
/* pixels */
"JFJHBJJFVBBBZKB; .,<>rVYHie59BAJB",
"FJJJJHDZJJBJBJJb4iJKFFBBHIFUJHBBZ",
"UJBJJBBHJJBHJJBHJIJVHHBBHVHVBHHHH",
"JVBJBBBJHHVHJJJBHHFVHJBBHBHBHBHHJ",
"BBJJBBJJBBJJHJJHJBBHJVBBHHBHHVBBV",
"JBJJJHJHBBHJJJBJJBJJFBBBHHBJBJJBB",
"JBBBBHBJHJJHBHBVJZHnBJJBBBBJJHJHH",
"dHBBHBHJFPFUJJIHBJheMJHBBBJHBBHBH",
"eJBZZBHJBFBFJKJSBYp3mLJJBBHJHJJJJ",
"JZBFJBg3<<<<4<<rAVHJBBBHHBJBBJBBB",
"KBBBJJq%**=***+1JKBBJJBHBHJJJBHJB",
"hVBBBBHJVVFFKVDBHBJBJJBBBBJBJBJBB",
"rLHHJBJJVFJFKFPBJVHHBBHBBHHIPYHJB",
"VBBBBHHHBHHHBJJBBJVBHJVHJCvy75kem",
"KBBJJHHBVBHBJBJBJJBVHHJHJYZ:@-x2k",
"JBBJJBBBJBJHBJJBBBJJHHHVBHJnxnDZv",
"JBBBHJBJHHVHBHBHBVJBHHBJBJBIUIJKJ",
"FBBJJBJBBHJBHBBBHVJBBBBBZHJBHHHBB",
"FHZJVBJHBBJYYKYYYTTYTTYLRUJBHBHJH",
"JHZBHBJJHVjeu6ri8rrrfguutrcVJBHVJ",
"BHVVHVJVHJ0o$$$$&#$&&$$$O*xJVBBBV",
"FBJJBJJHBJvsdzsszlgggsddrgnJBHBJB",
"ZZHHBHBBHBKTYYKKUUYLKKUYKIHBHJHBH",
"wJBVJHBBHBBZBHJJHBBJJJJBJBJJHBJJH",
"4VHHJJBHHJHJBBBBBJJBBJJHJBHJBHBHJ",
"BJJBBBHHHBUJPFZZJBJJBBBBJJBJBHZBH",
"KHJAZJHBHZNnvDHHJBBHBBHJJHBBJHBJB",
"BBBHHBJJYao+X<GUVBJJBBHJHJBHJBHBB",
"JBJJBJBJJmeeqhVBHBHHBBBBBBHBBJBJB",
"ABJJBHHBJHJPKKBBJBJJBBJJBBBJBHJHH",
"yLJJJBBHBHJJJVHBJBJBJJBBBBHJBHHBB",
"mABJJHJJJJBJBBJJHBBJJJBBHBHHZHBHJ",
"HHBBBHJBHHBJBBBBJVHBVJJJHHJBJHBBB"
};
