/* XPM */
static char *result[] = {
/* columns rows colors chars-per-pixel */
"32 32 177 2 ",
"   c #080507",
".  c #070709",
"X  c #090709",
"o  c #0C0B0D",
"O  c #120C0D",
"+  c #190C0B",
"@  c #0E0E11",
"#  c #100E10",
"$  c #1B0E10",
"%  c #121315",
"&  c #1A1414",
"*  c #1E1917",
"=  c #1B1619",
"-  c #19191C",
";  c #280F11",
":  c #231313",
">  c #291717",
",  c #261E1C",
"<  c #311D1C",
"1  c #2D231F",
"2  c #1E1D20",
"3  c #222125",
"4  c #2C2321",
"5  c #222528",
"6  c #2B282C",
"7  c #312626",
"8  c #3A2D27",
"9  c #3A2E28",
"0  c #3F322B",
"q  c #2D2E33",
"w  c #312D31",
"e  c #2C3035",
"r  c #353338",
"t  c #34353B",
"y  c #3B393C",
"u  c #431010",
"i  c #4D1212",
"p  c #4C1B1B",
"a  c #5D1212",
"s  c #5A1E14",
"d  c #601414",
"f  c #711D1D",
"g  c #471F21",
"h  c #4D2D29",
"j  c #552723",
"k  c #41342D",
"l  c #5C322E",
"z  c #473931",
"x  c #493A32",
"c  c #543433",
"v  c #632A27",
"b  c #6A2B25",
"n  c #732324",
"m  c #6C342D",
"M  c #6F3931",
"N  c #5D463D",
"B  c #343945",
"V  c #493F44",
"C  c #43444A",
"Z  c #5E4145",
"A  c #5F4C42",
"S  c #484C58",
"D  c #4C5157",
"F  c #59565D",
"G  c #614E43",
"H  c #645045",
"J  c #66544B",
"K  c #72554F",
"L  c #775651",
"P  c #6E615F",
"I  c #475267",
"U  c #4C5365",
"Y  c #4C5569",
"T  c #4C586D",
"R  c #545763",
"E  c #545E64",
"W  c #5E5A61",
"Q  c #54566A",
"!  c #52596A",
"~  c #4E5B73",
"^  c #4C5E7A",
"/  c #525D73",
"(  c #5A5B72",
")  c #505E7B",
"_  c #625F67",
"`  c #745D6A",
"'  c #5B6269",
"]  c #4E607D",
"[  c #54627C",
"{  c #59657B",
"}  c #6B6467",
"|  c #726A6E",
" . c #646C73",
".. c #6C6D75",
"X. c #726D73",
"o. c #71687C",
"O. c #787179",
"+. c #8C2A2A",
"@. c #A73636",
"#. c #AC3433",
"$. c #A73C3D",
"%. c #DE7127",
"&. c #C7723E",
"*. c #D17336",
"=. c #824346",
"-. c #A44546",
";. c #87747C",
":. c #4D6280",
">. c #586886",
",. c #596C8B",
"<. c #666D86",
"1. c #667084",
"2. c #6A7384",
"3. c #63718D",
"4. c #787886",
"5. c #737C8E",
"6. c #637392",
"7. c #687690",
"8. c #6D7993",
"9. c #67789A",
"0. c #6B7C9D",
"q. c #727A94",
"w. c #717E9A",
"e. c #667CA1",
"r. c #6B7EA0",
"t. c #837D86",
"y. c #847F88",
"u. c #7A8192",
"i. c #76839C",
"p. c #7B869A",
"a. c #6D81A5",
"s. c #6E83A8",
"d. c #7384A5",
"f. c #7787A5",
"g. c #7C8AA3",
"h. c #7B8BAC",
"j. c #768CB1",
"k. c #7C91B3",
"l. c #848089",
"z. c #89838C",
"x. c #858997",
"c. c #828699",
"v. c #838B9D",
"b. c #858EA3",
"n. c #818FAB",
"m. c #8993A7",
"M. c #8C9AA5",
"N. c #8592AB",
"B. c #8995AC",
"V. c #8D99AD",
"C. c #8996B2",
"Z. c #8E9CB5",
"A. c #8B9CBB",
"S. c #919DB6",
"D. c #98A2A7",
"F. c #92A2AC",
"G. c #97A8B2",
"H. c #9AA9B3",
"J. c #9AACB6",
"K. c #93A0BC",
"L. c #9BA7BD",
"P. c #9EB3BE",
"I. c #A0B1BB",
"U. c #99A7C2",
"Y. c #9FB4C0",
"T. c #A2ADC3",
"R. c #A3B3C4",
"E. c #A6B9C3",
"W. c #AFBFC8",
"Q. c #B2C3CC",
"!. c #BECDD5",
"~. c #CDC4C7",
"^. c #C5D3DC",
"/. c #DDE6E9",
"(. c #EDECEC",
"). c #F6F2F2",
"_. c #FCFCFD",
/* pixels */
"H H H H H H H H H H H H H H H H H H H H H H H H H H H H H H H H ",
"H H H H H H H H H H H H H H H H H H H H H H H H H H H H H H H H ",
"H H H H H H H H H H H H H H H H H H H H H H H H H H H H H H H H ",
"H H H H H H H H H H H H H H H H H H H H H H H H H H H H H H H H ",
"H H H H H H H H G G H H H H o.N.m.N.B.J H H G H H H H H H H H H ",
"H H H H H H H H A P | | = O , 7 & N.N.F | X.| | H H H H H H H H ",
"H H H H H H H H G } Z.p.X ; p i V r T.{ g.C.C.n.H H H H H G H H ",
"H H H G E v.c.b.2.( L.b.O p +.@.n r R [ b.S.S.b.Q v.x.b.5.R H H ",
"H H H H / C.N.C.8.>.R.L.} : n -.=.: o S u.v.p.b.[ N.N.C.f.! G H ",
"H H H H / T.L.T.b.~ d.0.D o = O.O.q o o & % % - [ T.U.T.B.! H H ",
"H H H H / Z.C.Z.i.[ j.d.t o 3 l.z. .E E ' ' ' B w V.C.S.f.! H H ",
"H H H H T d.e.s.<.c Z 4 o * l.x.G.P.P.P.P.P.Y.M.2 3.r.r.6.Y H H ",
"H H H H Y ,.>.,.( s : @ - l.D.J.P.P.P.P.Y.P.R.J.% ,.>.,.[ U G G ",
"H H H H Y 5.5.8.2.L o , 4.H.P.I.Q.Q.!.!.!.^.^.F.@ 2.5.5.1.U H H ",
"H H H H / U.S.K.S.D.+ C I.P.E./._._._._._._._._.% 5.K.U.n.! H H ",
"H H H H ~ 0.9.e.<.K O F.E.P.Q._._._._._._._._._.% S 9.0.,.Q H H ",
"H H H H ~ h.f.j.5.b O J.Y.P.W._._.y . . . . X . o Y f.h.0.U H H ",
"H H H H I ) :.:.Q M #  .Y.T.W._._.r . . X X . X o B ] [ ~ I H H ",
"H H G G Q b.p.g.4.m O q M.H.R.(._._._._.X # ).(.# u.p.g.5.U H H ",
"H H G G / A.A.A.c.m o % B ..D.W.~._._._.# + )._.o A.C.K.g.T H H ",
"H H H H T r.9.r.<.m > + o V t.y.$.#.#.#.%.%.#.$.X e.0.r.6.U H H ",
"H H H H ~ h.f.j.q.m h h O g #.#.#.$.-.-.&.*.-.@.o j.f.h.0.U H H ",
"H H H H I / / ) R m < l : g #.#.#.z.z.l.t.y.l.t.= ^ ~ / ~ U H H ",
"H H H H / V.m.B.v.t.4 b : 0 ;.y.t.J.J.J.J.J.J.D.% V.m.V.p.Y H H ",
"H H H H / n.h.h.i.L ;.u & D y.t.l.G.J.J.H.J.J.G.% k.h.n.0.Y G H ",
"H H H H ~ r.r.s.X.+.a i O X.y.t.D 5 o @ o % 4.4.@ a.0.d.7.T H H ",
"H H H H ! w.q.0.` a a i O O.t._ o ;     o 3 X.} 7 7.8.w.3.U H H ",
"H H H H G H H H N d a u $ D ..# o f a + t W 3 X 4 A H H H H H H ",
"H H H H H H H H H v v < o 6 5 o : j p $ e C = o k H G G H H H H ",
"H H H H H H H G N 9 9 1 o . . 1 z k 1 O . O 1 0 k k G G H H H H ",
"H H H H H H H G H x z 8 1 % * 9 x x 9 * X = 8 z z k k N G H H H ",
"H H H H H H H G N H 0 0 0 0 0 0 k 0 k k 0 0 0 k 0 k G G G H H H "
};
