/* XPM */
static char *result[] = {
/* columns rows colors chars-per-pixel */
"32 32 137 2 ",
"   c #040200",
".  c #0E0C06",
"X  c #0C0C0B",
"o  c #100E07",
"O  c #16070C",
"+  c #110E0B",
"@  c #1D0E0B",
"#  c #14120D",
"$  c #19150F",
"%  c #0F0F11",
"&  c #141312",
"*  c #1B1513",
"=  c #1F1914",
"-  c #1F161A",
";  c #1E1B1C",
":  c #220708",
">  c #250F0C",
",  c #340E0F",
"<  c #23140F",
"1  c #231B17",
"2  c #241E1A",
"3  c #361C1B",
"4  c #22211F",
"5  c #2B231E",
"6  c #222024",
"7  c #2D2623",
"8  c #242528",
"9  c #25292D",
"0  c #322722",
"q  c #342A24",
"w  c #382D27",
"e  c #302D2F",
"r  c #3A2E28",
"t  c #3E322B",
"y  c #313030",
"u  c #38363B",
"i  c #3F3A3E",
"p  c #401111",
"a  c #571617",
"s  c #551D1E",
"d  c #5B1F20",
"f  c #552123",
"g  c #42352D",
"h  c #4F352E",
"j  c #453730",
"k  c #463831",
"l  c #4A3B33",
"z  c #48383C",
"x  c #553438",
"c  c #4F4037",
"v  c #4F4038",
"b  c #55443B",
"n  c #58473D",
"m  c #5A483F",
"M  c #68423A",
"N  c #60483F",
"B  c #7B463F",
"V  c #434142",
"C  c #484547",
"Z  c #5E4B41",
"A  c #54534F",
"S  c #4C545A",
"D  c #555352",
"F  c #5A5957",
"G  c #595459",
"H  c #5F5D5A",
"J  c #624E43",
"K  c #6A4E44",
"L  c #645045",
"P  c #6B5D64",
"I  c #576269",
"U  c #59656C",
"Y  c #666461",
"T  c #6C6C6B",
"R  c #6E6B73",
"E  c #726E77",
"W  c #777777",
"Q  c #74777F",
"!  c #7B767E",
"~  c #822424",
"^  c #892626",
"/  c #812827",
"(  c #892D2D",
")  c #893235",
"_  c #A43333",
"`  c #AC3434",
"'  c #AD3837",
"]  c #AB3A3A",
"[  c #B33434",
"{  c #B83A39",
"}  c #84433D",
"|  c #9A413C",
" . c #DE7027",
".. c #E1752C",
"X. c #884741",
"o. c #994F53",
"O. c #8F5A5C",
"+. c #97555A",
"@. c #9A575B",
"#. c #925D5C",
"$. c #986757",
"%. c #85727A",
"&. c #90737A",
"*. c #AA6166",
"=. c #A0747B",
"-. c #837D86",
";. c #927D86",
":. c #76848C",
">. c #7A8992",
",. c #898992",
"<. c #8E969B",
"1. c #929190",
"2. c #999A9C",
"3. c #8B9BA5",
"4. c #96A3AD",
"5. c #98A3AD",
"6. c #97A7B1",
"7. c #96A9B3",
"8. c #9AABB5",
"9. c #9BAEB8",
"0. c #9EB1BB",
"q. c #AEACAD",
"w. c #A0B2BC",
"e. c #C0BFBE",
"r. c #A4B8C2",
"t. c #BFC4C4",
"y. c #B6C4CB",
"u. c #CFD6DA",
"i. c #DAE1E5",
"p. c #DDEAF1",
"a. c #E6EAEC",
"s. c #E2EFF7",
"d. c #EAEFF1",
"f. c #EEF1F2",
"g. c #F1F3F4",
"h. c #F6F8F9",
"j. c #FDFDFD",
/* pixels */
"L L L L L L L L L L L L L L L L L L L L L L L L L L L L L L L L ",
"L L L L L L L L L L L L L L L L L L L L L L L L L L L L L L L L ",
"L L L L L L L L L L L L L L L L L L L L L L L L L L L L L L L L ",
"L L L L L L L L L J Z Z Z w * 0 m J L L L L L L L L L L L L L L ",
"L L L L L L L L L Z l t t 3 p 3 g m L L L L L L L L L L L L L L ",
"L L L L L L L L L b 4 X + s ( d * r Z Z Z Z J L L L L L L L L L ",
"L L L L L L L L L v < : a X.@.x   + $ = 1 4 g L L L L L L L L L ",
"L L L L L L L L L x - , ) *.%.S & # + & & & o l m J L L L L L L ",
"L L L L L b b b b k + 1 5.6.5.6.i.a.i.u.>.:.o & t J L L L L L L ",
"L L L L L L L J l r o 4 6.y.g.g.f.f.d.f.s.p.<.; 5 m L L L L L L ",
"L L L L L L L n 7 2 G 6.8.d.g.g.f.g.f.g.g.f.2.X 5 Z L L L L L L ",
"L L L L L L L n = 8 Q 8.0.g.g.e.e.u.1.H A D V & 0 m L L L L L L ",
"L L L L L L L b 1 9 :.0.r.g.g.# . . . . . . # % q c b b L b L L ",
"L L L L L L L n = # 3.9.r.g.g.g.a.Y F . # T W o 1 Z L L L L L L ",
"L L L L L L L b * X 4.9.r.y.g.g.g.h.j.j.h.j.t.# 1 Z L L L L L L ",
"L L L L L L L n 2 + C <.8.0.0.w.g.g.j.j.j.j.q.$ 2 Z L L L L L L ",
"L L L L L L L J x $ + y 6.7.8.8.] ` ` .. .] ' = 7 m L L L L L L ",
"L L L L L L L L K M < ; P ;.&.+.` ` ` .. .' _ O q L L L L L L L ",
"L L L L L L L L X.) > @ _ ` [ o.O.O.O.$.*.#.x + 0 L L L L L L L ",
"L L L L L B B X.] ^ o + ` ` ] =.6.6.8.8.8.8.6.u 7 k n L L L L L ",
"L L L L L _ _ ] { ~ @ = R %.-.1.8.9.8.9.8.8.,.-.i ; t J L L L L ",
"L L L L J | { ` ~ f z W ,.-.-.S I U U I I U -.-.! & w m L L L L ",
"L L L L L K } / > & R -.-.# & X % % & % X X 7 ! E & w Z L L L L ",
"L L L L L J N h # X R ! e o = 5 5 5 5 5 7 # # # 6 X w Z L L L L ",
"L L L L L m Z b 5 $ % # X # t j j g g g k k 1 . X & r n J L L L ",
"L L L L L l k l q 5 5 5 q t g j j j k g j g t w q q r j K L L L ",
"L L L L L t r t g k k j j g g g g g g g g g g k l g r g L L L L ",
"L L L L L j t t t g g g g g g t g t t g t t t g g g g g L L L L ",
"L L L L L b l t t t t t t t t t t t t t t t t g r g l b L L L L ",
"L L L L L J c g g j g g g g j g g g j g g g g g g k b J L L L L ",
"L L L L L L L L L L L L L L L L L L L L L L L L L L L L L L L L ",
"L L L L L L L L L L L L L L L L L L L L L L L L L L L L L L L L "
};
