/* XPM */
static char *result[] = {
/* columns rows colors chars-per-pixel */
"32 32 126 2 ",
"   c #060506",
".  c #0A0507",
"X  c #070709",
"o  c #090709",
"O  c #0C0B0D",
"+  c #120C0D",
"@  c #1A0D0D",
"#  c #0E0E11",
"$  c #100E10",
"%  c #1A0E10",
"&  c #131315",
"*  c #1B1414",
"=  c #1E1917",
"-  c #1E1618",
";  c #17191C",
":  c #1C1A1C",
">  c #230E0F",
",  c #231212",
"<  c #2A1514",
"1  c #251E1B",
"2  c #2C1F1D",
"3  c #381E1D",
"4  c #2A221F",
"5  c #1F1D20",
"6  c #1E2024",
"7  c #222125",
"8  c #2C2421",
"9  c #222528",
"0  c #282B2F",
"q  c #342A25",
"w  c #392D27",
"e  c #3A2E28",
"r  c #3E322B",
"t  c #312D31",
"y  c #2C3035",
"u  c #32373C",
"i  c #3B393C",
"p  c #431010",
"a  c #4D1212",
"s  c #481618",
"d  c #401A19",
"f  c #4C1B1B",
"g  c #5D1212",
"h  c #5E1E1D",
"j  c #601414",
"k  c #711D1D",
"l  c #4C221F",
"z  c #4B2B27",
"x  c #4C2F2A",
"c  c #552723",
"v  c #42352D",
"b  c #5C322E",
"n  c #423532",
"m  c #463931",
"M  c #4C3D35",
"N  c #622724",
"B  c #6B2926",
"V  c #642D2A",
"C  c #732324",
"Z  c #702D2A",
"A  c #723632",
"S  c #54443B",
"D  c #59473D",
"F  c #5B493F",
"G  c #43444A",
"H  c #5E4B41",
"J  c #4C4C52",
"K  c #4C5056",
"L  c #624E43",
"P  c #6B4D43",
"I  c #714C43",
"U  c #645045",
"Y  c #68574D",
"T  c #545E64",
"R  c #5E5A61",
"E  c #625F67",
"W  c #59646A",
"Q  c #646C73",
"!  c #6C6D75",
"~  c #716C73",
"^  c #75727A",
"/  c #7B7078",
"(  c #862726",
")  c #932A2B",
"_  c #A73031",
"`  c #AC3433",
"'  c #A63738",
"]  c #A73C3D",
"[  c #A93A3A",
"{  c #DE7127",
"}  c #C7723E",
"|  c #D17336",
" . c #824346",
".. c #A54344",
"X. c #A3484A",
"o. c #87747C",
"O. c #7D7B84",
"+. c #837D86",
"@. c #847F88",
"#. c #848089",
"$. c #89838C",
"%. c #94818A",
"&. c #8C9AA5",
"*. c #95A0A7",
"=. c #92A2AC",
"-. c #9AA2AC",
";. c #97A7B2",
":. c #9DA6B0",
">. c #97A8B2",
",. c #9AACB6",
"<. c #99ADB8",
"1. c #9EB3BE",
"2. c #A0B1BB",
"3. c #9FB4C0",
"4. c #A1B4C0",
"5. c #A6B9C3",
"6. c #AFBFC8",
"7. c #B2C3CC",
"8. c #BECDD5",
"9. c #CDC4C7",
"0. c #C5D3DC",
"q. c #DAE3E6",
"w. c #DFE9EC",
"e. c #EDECEC",
"r. c gray95",
"t. c #FCFCFD",
/* pixels */
"U U U U U U U U U U U U U U U U U U U U U U U U U U U U U U U U ",
"U U U U U U U U U U n & + @ @ + M L U U U U U U U U U U U U U U ",
"U U U U U U U U U U r X < s a > 1 M U U U U U U U U U U U U U U ",
"U U U U U U U U U U r O s ) _ C @ 8 F U U U U U U U U U U U U U ",
"U U U U U U U U U U S 4 < C X. ., + q w w q r U U U U U U U U U ",
"U U U U U U U U U U L 4 O - / O.t O # & & & & m H U U U U U U U ",
"U U U U U U U U U U S 1 O 9 O.#.Q T T W W W 6 5 m U U U U U U U ",
"U U U U U U U U L D 1 O 5 #.$.;.1.<.2.4.4.4.&.; r L U U U U U U ",
"U U U U U S S S m * O : #.-.,.1.3.3.3.3.3.5.<.& r U U U U U U U ",
"U U U U U U U U S O 5 O.:.2.5.7.7.8.8.8.8.0.*.# r U U U U U U U ",
"U U U U U U U U M $ G 3.3.5.q.t.t.t.t.t.t.t.t.# t U U U U U U U ",
"U U U U U U U U S # =.3.3.6.t.t.t.t.t.t.t.t.t.& 4 U U U U U U U ",
"U U U U U U U U M O 1.1.1.7.t.t.i X X X X X X O 8 U D S U S U U ",
"U U U U U U U U S $ Q 2.1.7.t.t.y   X   X X X # 4 U U U U U U U ",
"U U U U U U U U M O t &.>.2.w.t.t.t.t.X $ r.e.# r U U U U U U U ",
"U U U U U U U U M o & i ! =.7.9.t.t.t.O @ r.t.O H U U U U U U U ",
"U U U U U U U U S % + + G o.%.[ ` ` ` { { ` [ X L L U U U U U U ",
"U U U U U U U U P 2 z + f ` ` ` ] ..X.} | ..' O F U U U U U U U ",
"U U U U U U U U Y * b * l _ ` ` $.$.#.@.@.$.+.& L U U U U U U U ",
"U U U U U U U U m % B , n o.+.+.,.,.,.,.,.,.=.& H L U U U U U U ",
"U U U U U U L I 3 h p % K +.#.#.>.,.,.,.,.,.;.& L L U U U U U U ",
"U U U U U P P A ( g a @ ~ #.O.J 9 O $ O & +.O.& H L U U U U U U ",
"U U U U L L P Z g g a + ^ #.W $ , .   X 5 ~ E - r S L L U U U U ",
"U U U U L L M l j g p % K ! + + k g @ u R 7 O 8 r m S L U U U U ",
"U U U U U U M x V N d + 0 7 O , c f % y G & O r v v m S U U U U ",
"U U U U U U m v w w 4 . o   4 v m 8 O o + 4 v m v v r v U U U U ",
"U U U U L L e v m m w 4 * = w M M w = o * e m v r v e r U U U U ",
"U U U U U L m v v r v v r r v r v v r r v v r v r r r m U U U U ",
"U U U U U U D m r e v v v v v v e v v v v v r r e v M S U U U U ",
"U U U U U U H M v v v v M v v v v v m v m v v v v v S L U U U U ",
"U U U U U U U U U U U U L U U U U U U U U U U U U U U U U U U U ",
"U U U U U U U U U U U U U U U U U U U U U U U U U U U U U U U U "
};
