/* XPM */
static char *result[] = {
/* columns rows colors chars-per-pixel */
"32 32 144 2 ",
"   c #040200",
".  c #0E0C06",
"X  c #0C0C0B",
"o  c #100E07",
"O  c #16070C",
"+  c #110E0B",
"@  c #1D0E0B",
"#  c #15120D",
"$  c #19150F",
"%  c #0F0F11",
"&  c #141312",
"*  c #1B1513",
"=  c #1F1914",
"-  c #1F161A",
";  c #1E1B1C",
":  c #250F0C",
">  c #340E0F",
",  c #23140F",
"<  c #231B17",
"1  c #281F1B",
"2  c #361C1B",
"3  c #22211F",
"4  c #2B231E",
"5  c #222024",
"6  c #2D2623",
"7  c #242528",
"8  c #25292D",
"9  c #322722",
"0  c #342A24",
"q  c #382D27",
"w  c #302D2F",
"e  c #3A2E28",
"r  c #3E322B",
"t  c #313030",
"y  c #38363B",
"u  c #3F3A3E",
"i  c #401111",
"p  c #571617",
"a  c #551D1E",
"s  c #5B1F20",
"d  c #552123",
"f  c #42352D",
"g  c #4F352E",
"h  c #453730",
"j  c #463831",
"k  c #4A3B33",
"l  c #48383C",
"z  c #553438",
"x  c #792F2D",
"c  c #4F4037",
"v  c #54443B",
"b  c #58473D",
"n  c #5A483F",
"m  c #68423A",
"M  c #60483F",
"N  c #434142",
"B  c #484547",
"V  c #5E4B41",
"C  c #54534F",
"Z  c #4C545A",
"A  c #555352",
"S  c #5A5957",
"D  c #595459",
"F  c #5F5D5A",
"G  c #624E44",
"H  c #6A4E44",
"J  c #645045",
"K  c #6B5D64",
"L  c #576269",
"P  c #59656C",
"I  c #666461",
"U  c #6C6C6B",
"Y  c #6E6B73",
"T  c #726E77",
"R  c #796D76",
"E  c #777777",
"W  c #74777F",
"Q  c #7B767E",
"!  c #822424",
"~  c #892626",
"^  c #812827",
"/  c #892D2D",
"(  c #893235",
")  c #A43333",
"_  c #AC3434",
"`  c #AD3837",
"'  c #AB3A3A",
"]  c #B33434",
"[  c #B83A39",
"{  c #84433D",
"}  c #9A413C",
"|  c #DE7027",
" . c #E1752C",
".. c #933F42",
"X. c #884741",
"o. c #994F53",
"O. c #89575F",
"+. c #8F5A5C",
"@. c #97555A",
"#. c #925D5C",
"$. c #986757",
"%. c #A36F5E",
"&. c #85727A",
"*. c #90737A",
"=. c #AA6166",
"-. c #A0747B",
";. c #837D86",
":. c #837F88",
">. c #927D86",
",. c #76848C",
"<. c #7A8992",
"1. c #898992",
"2. c #918C95",
"3. c #8E969B",
"4. c #929190",
"5. c #91959F",
"6. c #999A9C",
"7. c #8B9BA5",
"8. c #8F9FA8",
"9. c #96A3AD",
"0. c #98A3AD",
"q. c #97A7B1",
"w. c #96A9B3",
"e. c #9AABB5",
"r. c #9BAEB8",
"t. c #9EB1BB",
"y. c #AEACAD",
"u. c #A0B2BC",
"i. c #C0BFBE",
"p. c #A4B8C2",
"a. c #BFC4C4",
"s. c #B6C4CB",
"d. c #C8C8C8",
"f. c #CFD6DA",
"g. c #D8DFE3",
"h. c #DAE1E5",
"j. c #DDEAF1",
"k. c #E6EAEC",
"l. c #EAEFF1",
"z. c #EEF1F2",
"x. c #F1F3F4",
"c. c #F7F7F8",
"v. c #F6F8F9",
"b. c #FDFDFD",
/* pixels */
"J J J J J J J J J J J J J J J J J J J J J J J J J J J J J J J J ",
"J J J J J J J J J J J J J J J J J J J J J J J J J J J J J J J J ",
"J J J J J J J J J J J J J J J J J J J J G J J G J J J J J J J J ",
"J J J J J J J J J J J J J J J J V 0 = e V V G G J J J J J J J J ",
"J J J J J J J J J J J J J J J b r 2 i 2 r r k V J J J J J J J J ",
"J J J J J J J J J J V V V V V r $ s / a O X 1 v J J J J J J J J ",
"J J J J J J J J J V r 4 < = $ #   z @...p @ & k J J J J J J J J ",
"J J J J J J J G V k o & & # % & & Z &.=.( > * v J J J J J J J J ",
"J J J J J v v v 0 # o ,.<.f.h.k.g.q.0.q.9.< o v J J J J J J J J ",
"J J J J J J J V 4 ; 3.j.j.z.z.z.l.x.c.s.q.3 o q k G J J J J J J ",
"J J J J J J J V 3 X 6.z.x.x.x.c.x.x.x.l.w.0.D 5 6 V G J J J J J ",
"J J J J J J J V 0 & N A C F 4.d.d.i.c.x.t.r.W 7 = v G G J J J J ",
"J J J J J J J V 0 X # . . . o . . o x.x.p.t.,.8 < k v v J v J J ",
"J J J J J J J V < X E U # . S I k.z.x.x.p.r.7.# = V J J J J J J ",
"J J J J J J J V < # a.b.v.b.b.v.x.x.x.s.p.r.8.X * v J J J J J J ",
"J J J J J J J V 4 # y.b.b.b.b.x.x.u.t.u.r.5.B + 4 v J J J J J J ",
"J J J J J J J V 6 - _ `  . ._ _ ' e.e.q.w.t + $ z H J J J J J J ",
"J J J J J J J G 9 O ) _ | | ` ) _ @.*.>.K ; , m H H J J J J J J ",
"J J J J J J J J 9 O z $.%.$.+.O.#.o._ _ ) @ : x X.J J H J J J J ",
"J J J J J J b j 6 y 9.e.e.e.r.r.0.-.` _ _ + . ~ ' X.H { J J J J ",
"J J J J J G r - u ;.1.e.e.e.r.r.w.2.;.;.R < @ ! ] ` ' ) J J J J ",
"J J J J J V 0 & W :.:.P L P L P L Z ;.;.:.T l d ! _ [ } J J J J ",
"J J J J J V q & T Q 7 + X & & # % X & # ;.;.Y & : ^ { H J J J J ",
"J J J J J V e X 5 # # # 4 4 4 4 6 4 * + w Q Y X # g M J J J J J ",
"J J J J J v r & # . < h j f f f h h f # + X # # 4 b n n J J J J ",
"J J J J J j r 0 4 4 0 e h h h f h h f e 0 0 0 0 r k j k J J J J ",
"J J J J G r r f j j f f r f f f f f f f h h j j f r e r J J J J ",
"J J J J J f f f f f r f r f r f f r f f f f f f f r r h J J J J ",
"J J J J J v k f r r r r r r r r r r r r r r r r r f k v J J J J ",
"J J J J J G v f f j f f h f h f f f f h f h h f f h c J J J J J ",
"J J J J J J J J J J J J M J J J J J J J J J J J M J J J J J J J ",
"J J J J J J J J J J J J J J J J J J J J J J J J J J J J J J J J "
};
