/* XPM */
static char *_36f677b1a0b415d9ee2330f921779ea8zaDr0HxL7Ib0nFG[] = {
/* columns rows colors chars-per-pixel */
"16 16 4 1 ",
"  c #353E50",
". c #434F65",
"X c #5A6988",
"o c #6F7F9F",
/* pixels */
".       .       ",
".ooooooo.ooooooo",
".oXXXXXo.oXXXXXo",
"    .       .   ",
"oooo.ooooooo.ooo",
"XXXo.oXXXXXo.oXX",
"XXXX..XXXXXX.XXX",
".       .       ",
".ooooooo.ooooooo",
".oXXXXXo.oXXXXXo",
".XX.XXXX.XXXXXXX",
"    .       .   ",
"oooo.ooooooo.ooo",
"XXXo.oXXXXXo.oXX",
"XXXX.XXXXXXX.XXX",
"................"
};
