/* XPM */
static char *df328433c7ec4a70d71d55d77a02190crKQuwYV4OHuRzV8w[] = {
/* columns rows colors chars-per-pixel */
"32 32 5 1 ",
"  c #5A5A59",
". c #646463",
"X c #676767",
"o c gray43",
"O c gray54",
/* pixels */
"OO.OOOOOOO.OOOOOOO.OOOOOOO.OOOOO",
"OO.OOOOOOO.OoOOOOO.OOOOOOO.OOOOO",
"OO.OOOOOOo.OOOOOOO.OOOOOOO.OOOoo",
"oo ooooooo ooooooo ooooooo ooooo",
"oo ooooooo ooooooo ooooooo ooooo",
"XX XXXXXXX XXXXXXX XXXXXXX XXXXX",
"                                ",
"OOOOO OOOO OOOOOO OOOOO OOOOO OO",
"ooooo oooo oooooo ooooo ooooo oo",
"ooooo oooo oooooo ooooo ooooo o ",
"XXXXX XXXX XXXXXX XXXXX XXXXX XX",
"                                ",
"OO OOOO OOOOOO OOOOO OOOOOO OOOO",
"oo oooo oooooo ooooo oooooo oooo",
"oo oooo oooooo ooooo o oooo oooo",
"XX XXXX XXXXXX XXXXX XX XXX XXXX",
"                                ",
"OOOO OOOOO OOOOOO OOOOOO OOOOOO ",
"oooo ooooo oooooo oooooo oooooo ",
"oooo ooo o oooooo oooooo oooooo ",
"XXXX XXXX  XXXXXX XXXXXX XXXXXX ",
"                                ",
"OO OOOO OOOOO OOOOOO OOOOOOO OOO",
"oo oooo ooooo oooooo ooooooo ooo",
"oo ooo  ooooo oooooo oooo  o ooo",
"XX XX X XXXXX XXXXXX XXX XXX XXX",
"                                ",
"OOOOO OOOO OOOOOO OOOOOO OOOOOO ",
"ooooo oooo oooooo oooooo oooooo ",
"ooooo oooo oooooo oooooo oooooo ",
"XXXXX XXXX XXXXXX XXXXXX XXXXXX ",
"                                "
};
