/* XPM */
static char *result[] = {
/* columns rows colors chars-per-pixel */
"33 33 32 1 ",
"  c #575757",
". c #575957",
"X c #585957",
"o c #5C5C5B",
"O c #605F5E",
"+ c #5F605E",
"@ c #60605E",
"# c #5F5F60",
"$ c #605F60",
"% c #5F6060",
"& c #636363",
"* c #686767",
"= c #696967",
"- c #676768",
"; c #686768",
": c #6C6C6C",
"> c #706E6E",
", c #6F706F",
"< c #70706F",
"1 c #6F7170",
"2 c #737372",
"3 c #797779",
"4 c #777878",
"5 c #7B7B7B",
"6 c #817E7D",
"7 c #81807E",
"8 c #7F7E80",
"9 c #807F80",
"0 c #848383",
"q c #888786",
"w c #878788",
"e c #898989",
/* pixels */
"600q9>:q00qw<*0w0e2&5e0e5&5qq0q79",
"33553=*53335:&3555>&25352&2533553",
":::::@O>:,,:&$:<:,&O::,::+:::::::",
"=::::&&:::::&O:::>&O-:::=o&::::::",
"oo+@oXXoo##oX o%$#XXooo&o oooo&oo",
">:&&2:2>,&$,2,2&o:22:2:o:1,,<:+=<",
"60:,w00002=w00w2-5e00e3&3w0007&3w",
"::&&::,::&O:1:2&&::::1-#:,::,:+::",
"=:&&2::,:&&:1:2&o:2::2:o=::,::+-,",
"@&oO&&&&&oo&&&&oX&&&&&oo%&&&&&X+&",
"&&@&&oo&&&&&oo&&&&*@o&&&&&&o+&&&o",
"60qq0::e00ww2-0e00e2&5e00e5&5w00&",
">2<22&&22222-&22222:&:2222:+:221$",
"=:>>:&&>:::,&%::::2&#:1::,:+-,,:O",
"***=*OO=-:--%o-:;;:&o&:;-:&+&--=o",
"OXOXooXooooooXoooXoXoXXooXoXooooX",
"30=:0860:&09500:&5058802&30895&20",
"33&=3353:&55535:&4735352&25553&25",
"=:&&,:::&$:::::-#:,:::::o;::::#-:",
"=:%&::::&&:::::&o::::::*+;::::o&:",
"XoXXXo@X Xoo+oo.XooooooX.Xo@oX Xo",
":=*:-o&:&:=:+o:=:-:&o-:;::=o-:;:&",
"::=:=&+:::::&+::=::&o&::::&o&::::",
":::::&&:::::&+:,:::&@:,::::o:::::",
"33353:&53355:&45539:&253452&25333",
"59695::00699,&798802&309504&20805",
"ooXooooXXXoXooooXoXo#oXXooooooXoo",
"&*OO:&:=@o::--:+@&;;:;:&o&:-:&o&;",
"::&&::::&&:::,1&&::::,,:o:,:::o::",
"<2&&2222&&22222-&,22222:#:2221#:<",
"7q::wwe01;w00we2&0e000e5&5w000&5q",
"@&o+&&&&+o&&&&&+o&&&&&&%o&&&&&o#&",
"O&&&&Oo&&&&&oX&&&&&$oO&$&&$oO&&&o"
};
